<svg width="1200" height="900" viewBox="0 0 1200 900" fill="none" xmlns="http://www.w3.org/2000/svg">
  <rect width="1200" height="900" rx="52" fill="#0D1B2A"/>
  <rect width="1200" height="900" rx="52" fill="url(#paint0_linear)"/>
  <circle cx="952" cy="160" r="142" fill="#F59E0B" fill-opacity="0.16"/>
  <circle cx="198" cy="726" r="210" fill="#1D4ED8" fill-opacity="0.12"/>
  <path d="M0 710L140 664L279 690L418 628L558 662L698 600L837 646L976 586L1116 628L1200 598V900H0V710Z" fill="#13263F"/>
  <path d="M0 764L120 734L239 756L359 708L478 734L598 688L717 716L837 676L956 704L1076 664L1200 620V900H0V764Z" fill="#1A3556"/>
  <rect x="120" y="390" width="88" height="246" fill="#294764"/>
  <rect x="149" y="322" width="30" height="314" fill="#F8FAFC"/>
  <path d="M164 322L284 388H44L164 322Z" fill="#F6C16A"/>
  <rect x="450" y="298" width="18" height="250" fill="#E2E8F0"/>
  <path d="M459 298L564 352H354L459 298Z" fill="#F6C16A"/>
  <path d="M459 430L550 484H368L459 430Z" fill="#F6C16A" fill-opacity="0.82"/>
  <rect x="744" y="266" width="28" height="296" fill="#E2E8F0"/>
  <path d="M758 266L904 346H612L758 266Z" fill="#F6C16A"/>
  <path d="M758 418L884 492H632L758 418Z" fill="#F6C16A" fill-opacity="0.78"/>
  <rect x="910" y="242" width="190" height="390" rx="26" fill="#0F172A" fill-opacity="0.62"/>
  <rect x="934" y="268" width="142" height="78" rx="18" fill="#F8FAFC" fill-opacity="0.94"/>
  <circle cx="983" cy="307" r="20" fill="#F59E0B"/>
  <path d="M975 309C982 300 988 296 995 290" stroke="#0F172A" stroke-width="4" stroke-linecap="round"/>
  <text x="1016" y="300" fill="#0D1B2A" font-family="Arial, sans-serif" font-size="16" font-weight="700">ANJANA AIM</text>
  <text x="1016" y="322" fill="#475569" font-family="Arial, sans-serif" font-size="12" font-weight="700" letter-spacing="2">INDIA COMPANY</text>
  <rect x="934" y="368" width="142" height="108" rx="18" fill="#FFFFFF" fill-opacity="0.08"/>
  <text x="954" y="404" fill="#F6C16A" font-family="Arial, sans-serif" font-size="12" font-weight="700" letter-spacing="2">INFRASTRUCTURE</text>
  <text x="954" y="432" fill="#FFFFFF" font-family="Arial, sans-serif" font-size="28" font-weight="700">Project</text>
  <text x="954" y="464" fill="#CBD5E1" font-family="Arial, sans-serif" font-size="14">Execution • Land • Energy</text>
  <rect x="934" y="498" width="142" height="108" rx="18" fill="#FFFFFF" fill-opacity="0.08"/>
  <text x="954" y="536" fill="#F6C16A" font-family="Arial, sans-serif" font-size="12" font-weight="700" letter-spacing="2">M.P. BASE</text>
  <text x="954" y="566" fill="#FFFFFF" font-family="Arial, sans-serif" font-size="22" font-weight="700">Mandsaur</text>
  <text x="954" y="592" fill="#CBD5E1" font-family="Arial, sans-serif" font-size="14">Trusted business support</text>
  <defs>
    <linearGradient id="paint0_linear" x1="600" y1="0" x2="600" y2="900" gradientUnits="userSpaceOnUse">
      <stop stop-color="#18304A"/>
      <stop offset="1" stop-color="#0B1322"/>
    </linearGradient>
  </defs>
</svg>
