<svg width="1100" height="900" viewBox="0 0 1100 900" fill="none" xmlns="http://www.w3.org/2000/svg">
  <rect width="1100" height="900" rx="48" fill="#F4EFE6"/>
  <rect y="610" width="1100" height="290" rx="0" fill="#E8D7BF"/>
  <rect x="312" y="90" width="486" height="700" rx="28" fill="#6D737D"/>
  <rect x="352" y="118" width="406" height="644" rx="20" fill="#D5D9E0"/>
  <rect x="390" y="146" width="330" height="588" rx="16" fill="#2A3442"/>
  <rect x="428" y="90" width="254" height="60" rx="18" fill="#8B5E3B"/>
  <rect x="452" y="118" width="206" height="22" rx="11" fill="#C79A6D"/>
  <rect x="424" y="196" width="80" height="92" rx="10" fill="#EBC38F"/>
  <rect x="522" y="196" width="80" height="92" rx="10" fill="#EBC38F"/>
  <rect x="620" y="196" width="80" height="92" rx="10" fill="#EBC38F"/>
  <rect x="424" y="316" width="80" height="92" rx="10" fill="#EBC38F"/>
  <rect x="522" y="316" width="80" height="92" rx="10" fill="#EBC38F"/>
  <rect x="620" y="316" width="80" height="92" rx="10" fill="#EBC38F"/>
  <rect x="424" y="436" width="80" height="92" rx="10" fill="#EBC38F"/>
  <rect x="522" y="436" width="80" height="92" rx="10" fill="#EBC38F"/>
  <rect x="620" y="436" width="80" height="92" rx="10" fill="#EBC38F"/>
  <rect x="424" y="556" width="80" height="92" rx="10" fill="#EBC38F"/>
  <rect x="522" y="556" width="80" height="92" rx="10" fill="#EBC38F"/>
  <rect x="620" y="556" width="80" height="92" rx="10" fill="#EBC38F"/>
  <rect x="486" y="650" width="152" height="112" rx="14" fill="#8B5E3B"/>
  <rect x="518" y="676" width="88" height="86" rx="8" fill="#2A3442"/>
  <path d="M116 740C188 650 272 624 366 656" stroke="#D2B48C" stroke-width="18" stroke-linecap="round"/>
  <path d="M820 676C890 610 962 598 1034 626" stroke="#D2B48C" stroke-width="18" stroke-linecap="round"/>
  <circle cx="182" cy="722" r="24" fill="#6E8B5B"/>
  <circle cx="908" cy="650" r="24" fill="#6E8B5B"/>
  <circle cx="980" cy="666" r="20" fill="#6E8B5B"/>
</svg>
