<svg width="1200" height="760" viewBox="0 0 1200 760" fill="none" xmlns="http://www.w3.org/2000/svg">
  <rect width="1200" height="760" rx="42" fill="#0F172A"/>
  <circle cx="106" cy="118" r="60" fill="#F6C16A"/>
  <path d="M0 554C174 486 344 490 520 536C691 582 884 588 1200 514V760H0V554Z" fill="#12324A"/>
  <path d="M0 612C176 556 341 562 510 602C683 642 884 646 1200 582V760H0V612Z" fill="#166534"/>
  <rect x="182" y="364" width="10" height="174" fill="#E2E8F0"/>
  <path d="M187 414C252 394 310 394 362 420" stroke="#E2E8F0" stroke-width="12" stroke-linecap="round"/>
  <path d="M187 414C165 350 165 290 188 236" stroke="#E2E8F0" stroke-width="12" stroke-linecap="round"/>
  <path d="M187 414C124 438 68 437 18 412" stroke="#E2E8F0" stroke-width="12" stroke-linecap="round"/>
  <rect x="420" y="392" width="220" height="18" transform="rotate(-18 420 392)" fill="#EBC38F"/>
  <rect x="468" y="438" width="220" height="18" transform="rotate(-18 468 438)" fill="#EBC38F"/>
  <rect x="516" y="484" width="220" height="18" transform="rotate(-18 516 484)" fill="#EBC38F"/>
  <rect x="828" y="364" width="10" height="174" fill="#E2E8F0"/>
  <path d="M833 414C898 394 956 394 1008 420" stroke="#E2E8F0" stroke-width="12" stroke-linecap="round"/>
  <path d="M833 414C811 350 811 290 834 236" stroke="#E2E8F0" stroke-width="12" stroke-linecap="round"/>
  <path d="M833 414C770 438 714 437 664 412" stroke="#E2E8F0" stroke-width="12" stroke-linecap="round"/>
  <text x="96" y="90" fill="#F8FAFC" font-family="Arial, sans-serif" font-size="38" font-weight="700">ANJANA AIM INDIA COMPANY</text>
  <text x="96" y="128" fill="#CBD5E1" font-family="Arial, sans-serif" font-size="20">Renewable Energy Project Support</text>
</svg>
