<svg width="1200" height="760" viewBox="0 0 1200 760" fill="none" xmlns="http://www.w3.org/2000/svg">
  <rect width="1200" height="760" rx="42" fill="#1F2937"/>
  <circle cx="998" cy="130" r="94" fill="#F59E0B" fill-opacity="0.18"/>
  <path d="M0 570L164 512L329 544L493 480L658 526L822 472L987 510L1200 448V760H0V570Z" fill="#111827"/>
  <rect x="176" y="220" width="70" height="280" fill="#334155"/>
  <rect x="420" y="194" width="70" height="306" fill="#475569"/>
  <rect x="664" y="164" width="70" height="336" fill="#64748B"/>
  <rect x="888" y="132" width="70" height="368" fill="#94A3B8"/>
  <path d="M210 220L324 280H96L210 220Z" fill="#F6C16A"/>
  <path d="M454 194L570 258H338L454 194Z" fill="#F6C16A"/>
  <path d="M698 164L824 236H572L698 164Z" fill="#F6C16A"/>
  <path d="M922 132L1048 204H796L922 132Z" fill="#F6C16A"/>
  <text x="84" y="88" fill="#F8FAFC" font-family="Arial, sans-serif" font-size="38" font-weight="700">ANJANA AIM INDIA COMPANY</text>
  <text x="84" y="126" fill="#CBD5E1" font-family="Arial, sans-serif" font-size="20">Commercial Construction Support</text>
</svg>
